<?xml version="1.0" encoding="utf-8"?>
<svg version="1.1" id="Lager_1" xmlns="http://www.w3.org/2000/svg" xmlns:xlink="http://www.w3.org/1999/xlink" x="0px" y="0px"
	 viewBox="0 0 860.15 860.28" style="enable-background:new 0 0 860.15 860.28;" xml:space="preserve">
<style type="text/css">
	.st1{fill:#14F25D;}
</style>
<g>
	<path class="st1" d="M430.17,0C192.61,0,0.03,192.58,0.03,430.14s192.58,430.14,430.14,430.14S860.31,667.7,860.31,430.14
		S667.73,0,430.17,0z M698.26,698.23c-34.83,34.84-75.38,62.18-120.53,81.28c-46.71,19.75-96.35,29.77-147.56,29.77
		s-100.85-10.02-147.56-29.77c-45.15-19.1-85.7-46.44-120.53-81.28C127.24,663.4,99.9,622.84,80.8,577.7
		c-19.75-46.71-29.77-96.35-29.77-147.56S61.05,329.29,80.8,282.58c19.1-45.15,46.44-85.7,81.28-120.53
		c34.83-34.84,75.38-62.18,120.53-81.28C329.32,61.02,378.96,51,430.17,51s100.85,10.02,147.56,29.77
		c45.15,19.1,85.7,46.44,120.53,81.28c34.84,34.83,62.18,75.38,81.28,120.53c19.75,46.71,29.77,96.35,29.77,147.56
		s-10.02,100.85-29.77,147.56C760.44,622.84,733.1,663.4,698.26,698.23z"/>
	<path class="st1" d="M685.48,229.49c-2.22-3.17-4.88-5.88-4.88-5.88s-2.95-3.01-6.46-5.48c-1.21-0.86-7.03-1.79-16.23-1.79
		c-32.05,0-105.21,11.35-168.59,77.05c-45.24,46.89-61.72,96.83-66.88,131.94c-8.5-11.64-18.49-23.25-30.2-34.55
		c-60.72-58.57-126.56-68.94-158.68-68.94c-11.13,0-18.21,1.25-19.63,2.16c-3.45,2.21-6.46,4.89-6.46,4.89s-3.36,2.99-6.19,6.59
		c-4.51,5.71-11.64,105.29,69.73,185.44c58.93,58.05,126.44,68.63,161.46,68.63c13.52,0,22.2-1.58,23.67-2.61
		c3.16-2.22,5.88-4.88,5.88-4.88s3-2.94,5.48-6.45c2.34-3.33,5.3-41.22-12.11-88.82c34.64-0.18,104.68-11.89,164.07-72.18
		C699.91,332.93,689.18,234.78,685.48,229.49z M377.05,529.75c-26.41-9.14-50.28-24.09-70.95-44.45
		c-24.72-24.35-41.84-53.26-50.89-85.94c-2.73-9.84-4.34-18.8-5.27-26.4c24.41,3.12,66.77,14.43,107.58,53.81
		c26.08,25.15,44.35,54.56,54.33,87.42c2.81,9.25,4.58,17.53,5.68,24.56C406.77,537.66,392.72,535.17,377.05,529.75z M510.71,426.38
		c-15.25,5.4-28.87,8.04-39.22,9.3c0.84-6.66,2.27-14.39,4.56-22.83c8.45-31.12,25.03-59.63,49.25-84.75
		c41.08-42.58,85.83-55.88,112.01-59.98c-0.72,7.07-2.04,15.39-4.34,24.68c-8.12,32.69-24.65,61.87-49.13,86.73
		C562.83,400.85,538.23,416.61,510.71,426.38z"/>
	<g>
		<path class="st1" d="M280.11,611.8c5.6-1.97,10.38,0.45,11.17,0.88c10.91,6.42,21.81,12.84,32.72,19.26
			c3.05,1.65,13.5,7.79,16.84,18.25c2.19,6.84,1.19,13.81-2.99,20.9c-4.56,7.74-11.11,11.84-19.64,12.29
			c2.33,4.38,3.56,8.6,3.69,12.68c0.13,4.08-1.1,8.33-3.71,12.76c-4.07,6.91-9.45,11.19-16.13,12.83c-6.68,1.64-13.85,0.21-21.5-4.3
			c-12.73-7.49-25.45-14.99-38.18-22.48c-0.99-0.77-4.19-3.45-5.34-8.24c-1.31-5.48,1-9.81,1.55-10.77
			c11.34-19.26,22.68-38.51,34.02-57.77C273.18,617.11,275.41,613.45,280.11,611.8z M295.68,638.49c-0.58,0.11-0.98,0.5-1.19,0.74
			c-2.53,4.25-5.06,8.5-7.59,12.76c-0.06,0.08-0.39,0.57-0.26,1.21c0.11,0.52,0.51,0.85,0.68,0.99c0.84,0.67,5.12,3.22,11.03,6.55
			c0.57,0.33,3.48,1.94,7.06,0.96c3.24-0.89,4.94-3.43,5.19-3.83c1.53-2.41,1.46-4.85,1.33-5.96c-0.52-4.51-4.22-6.9-4.75-7.22
			c-5.3-3.24-9.25-5.53-10.27-6C296.64,638.56,296.2,638.39,295.68,638.49z M277.76,668.38c-0.79,0.2-1.13,0.86-1.17,0.95
			c-2.84,4.78-5.69,9.56-8.53,14.34c-0.1,0.16-0.27,0.61-0.11,1.04c0.14,0.38,0.49,0.57,0.6,0.64c0.74,0.42,5.81,3.41,12.79,7.53
			c0.83,0.41,4.08,1.89,7.95,0.75c0.94-0.28,3.7-1.13,5.54-3.91c2.01-3.03,1.54-6.25,1.31-7.34c-0.8-3.85-3.59-5.87-4.21-6.3
			c-6.6-3.93-11.47-6.76-12.66-7.41C279,668.53,278.41,668.22,277.76,668.38z"/>
		<path class="st1" d="M427.17,664.24c-3-3.94-7.38-4.45-8.12-4.52c-2.81-0.38-5.62-0.75-8.43-1.12c-0.01,0-0.02,0-0.02,0
			c-3.67-0.5-7.35-0.98-11.02-1.47c-11.91-1.57-23.82-3.13-35.74-4.7c-1.96-0.11-5.04,0.04-7.82,1.83
			c-4.46,2.87-5.79,8.3-6.19,11.19c-3.04,22.3-6.09,44.59-9.13,66.89c-0.18,0.65-1.5,5.95,2.01,10.61c1.65,2.19,3.72,3.4,5.62,4.06
			c2.64,0.94,4.93,0.81,5.2,0.79c17.43,2.21,34.87,4.42,52.31,6.63c0.72,0.19,4.72,1.15,8.61-1.27c4.63-2.87,5.13-8.05,5.17-8.61
			c0.09-0.44,0.27-1.6,0.15-3.11c-0.02-0.28-0.28-2.87-1.73-5.18c-2.73-4.33-8.07-5.11-8.79-5.21c-2.98-0.4-5.95-0.8-8.93-1.2
			c-0.02,0-0.03,0-0.05-0.01c-4.61-0.61-9.22-1.23-13.83-1.85c-0.06-0.01-0.2-0.04-0.38-0.1c-0.01,0-0.01-0.01-0.02-0.01
			c-3.21-0.43-6.43-0.86-9.64-1.29c-0.18-0.03-0.94-0.2-1.47-0.92c-0.63-0.85-0.43-1.8-0.4-1.94c0.35-2.41,0.69-4.81,1.03-7.21
			c0.01-0.1,0.07-0.93,0.81-1.45c0.69-0.49,1.44-0.32,1.55-0.29c4.08,0.56,8.16,1.12,12.24,1.67c0.07,0.02,0.19,0.05,0.36,0.08
			c0.45,0.06,0.9,0.12,1.35,0.19c2.78,0.38,5.56,0.76,8.34,1.14c0.66,0.15,6.34,1.39,10.92-2.46c3.23-2.73,3.94-6.34,4.11-7.4
			c0.12-0.82,0.77-5.56-2.61-9.65c-3.41-4.12-8.21-4.36-8.94-4.38c-2.5-0.34-5-0.68-7.5-1.02c-0.01-0.01-0.02-0.01-0.03-0.01
			c-1.81-0.25-3.63-0.49-5.44-0.74c-0.05-0.01-0.16-0.03-0.29-0.07c0,0,0,0-0.01,0c-3.24-0.44-6.5-0.89-9.75-1.34
			c-0.13-0.02-0.64-0.11-1.01-0.56c-0.52-0.64-0.32-1.42-0.3-1.5c0.37-2.75,0.75-5.5,1.12-8.26c0.01-0.09,0.05-0.74,0.61-1.17
			c0.51-0.39,1.07-0.32,1.18-0.31c7.28,0.99,14.55,1.99,21.83,2.98c0.06,0.01,0.14,0.03,0.26,0.06c0.04,0.01,0.08,0.02,0.13,0.02
			c0.54,0.08,1.08,0.15,1.62,0.22c2.68,0.37,5.36,0.74,8.04,1.1c0.68,0.17,6.11,1.41,10.7-2.21c3.44-2.7,4.26-6.42,4.45-7.44
			C429.44,673.04,430.34,668.39,427.17,664.24z"/>
		<path class="st1" d="M468.25,753.09c-1.96,2.17-4.48,2.42-5.06,2.46c-5.88,0.2-11.76,0.4-17.63,0.59
			c-0.48-0.05-2.84-0.37-4.51-2.5c-2.12-2.68-1.32-5.9-1.23-6.22c5.09-39.76,10.15-68.94,12.64-76.56c0.62-1.9,1.99-6.18,5.79-9.72
			c2.7-2.52,5.4-3.65,7-4.3c1.74-0.71,6.19-2.46,11.98-1.78c0.9,0.11,4.36,0.57,8.26,2.63c6.32,3.35,9.57,9.09,11.23,12.1
			c5.01,9.13,16.67,33.22,30.96,66.08c0.18,0.42,1.17,2.81,0.12,5.53c-1,2.57-3.13,3.6-3.57,3.8c-5.83,1.29-11.66,2.59-17.49,3.88
			c-0.99,0.05-3.01,0-5.05-1.21c-1.7-1-2.6-2.32-3.46-3.58c-0.81-1.19-1.91-3.13-2.57-5.84c-0.01-0.1-0.06-0.73-0.63-1.14
			c-0.48-0.35-1-0.31-1.12-0.29c-7.15,0.77-14.3,1.54-21.45,2.31c-0.18,0.02-0.66,0.11-1.07,0.5c-0.63,0.61-0.55,1.44-0.54,1.55
			c-0.21,2.43-0.42,4.86-0.63,7.29C470.12,749.38,469.82,751.35,468.25,753.09z M471.1,716.62c0.75,0.66,1.65,0.65,1.86,0.64
			c3.38-0.38,6.75-0.75,10.12-1.12c0.16-0.01,1.15-0.06,1.81-0.88c0.59-0.73,0.69-1.79,0.24-2.69c-2.93-7.58-5.87-15.16-8.8-22.74
			c-0.13-0.56-0.64-0.93-1.17-0.89c-0.59,0.05-1.06,0.63-0.98,1.28c-1.3,7.97-2.61,15.95-3.91,23.92
			C470.25,714.22,470.02,715.68,471.1,716.62z"/>
		<path class="st1" d="M625.86,694.79c-0.68,0.35-1.5,1-3.13,2.06c-2.38,1.55-3,1.77-5.06,2.88c-1.41,0.76-1.96,1.11-2.49,1.39
			c-2.76,1.49-5.67,1.72-6.16,1.76c-3.33,0.23-6.04-0.8-7.57-1.55c0,0-27.25-13.24-38.25-20.17c-1.12-0.71-2.55-0.43-3.23,0.53
			c-0.56,0.79-0.53,1.93,0.11,2.8c8.63,12.93,14.86,23.09,17.46,27.99c0.76,1.42,2.05,3.96,1.34,6.7c-0.7,2.71-2.67,4.12-3.21,4.48
			c-3.25,1.93-6.5,3.85-9.75,5.78c-2.18,0.78-5.32,1.47-8.27,0.17c-2.84-1.25-4.26-3.8-4.77-4.69
			c-3.18-5.62-18.42-31.12-39.27-66.24c-0.32-0.49-2.22-3.48-1.3-7.3c0.82-3.42,3.33-5.14,3.9-5.51c3.89-2.35,7.78-4.7,11.68-7.05
			c0.59-0.37,1.48-0.84,2.64-1.14c0.61-0.16,1.36-0.28,2.23-0.3c2.57-0.06,4.86,1.17,5.37,1.45c2.75,1.5,20.73,11.62,45.31,25.77
			c0.67,0.49,1.58,0.42,2.12-0.12c0.48-0.48,0.6-1.25,0.29-1.9c-7.15-12.08-14.3-24.16-21.46-36.25c-0.26-0.53-1.62-3.42-0.43-6.72
			c0.85-2.36,2.54-3.63,3.2-4.06c3.63-2.22,7.25-4.44,10.88-6.65c1.08-0.1,3.25-0.14,5.7,0.89c0,0,2.8,1.18,5.03,3.94
			c3.12,3.86,19.19,31.1,40.47,68.87c0.27,0.45,2.1,3.6,0.85,7.33C629.01,693.09,626.42,694.5,625.86,694.79z"/>
	</g>
</g>
</svg>
