<?xml version="1.0" encoding="utf-8"?>
<!-- Generator: Adobe Illustrator 25.1.0, SVG Export Plug-In . SVG Version: 6.00 Build 0)  -->
<svg version="1.1" id="Lager_1" xmlns="http://www.w3.org/2000/svg" xmlns:xlink="http://www.w3.org/1999/xlink" x="0px" y="0px"
	 viewBox="0 0 40.2 40.2" style="enable-background:new 0 0 40.2 40.2;" xml:space="preserve">
<style type="text/css">
	.st0{fill:#FFFFFF;}
</style>
<g>
	<path class="st0" d="M20.1,0.1c-11.05,0-20,8.95-20,20s8.95,20,20,20s20-8.95,20-20S31.15,0.1,20.1,0.1z M32.57,32.57
		c-1.62,1.62-3.5,2.89-5.6,3.78c-2.17,0.92-4.48,1.38-6.86,1.38s-4.69-0.47-6.86-1.38c-2.1-0.89-3.98-2.16-5.6-3.78
		c-1.62-1.62-2.89-3.51-3.78-5.6c-0.92-2.17-1.38-4.48-1.38-6.86s0.47-4.69,1.38-6.86c0.89-2.1,2.16-3.98,3.78-5.6
		c1.62-1.62,3.5-2.89,5.6-3.78c2.17-0.92,4.48-1.38,6.86-1.38s4.69,0.47,6.86,1.38c2.1,0.89,3.98,2.16,5.6,3.78
		c1.62,1.62,2.89,3.5,3.78,5.6c0.92,2.17,1.38,4.48,1.38,6.86s-0.47,4.69-1.38,6.86C35.46,29.06,34.19,30.95,32.57,32.57z"/>
	<path class="st0" d="M31.97,10.77c-0.1-0.15-0.23-0.27-0.23-0.27s-0.14-0.14-0.3-0.25c-0.06-0.04-0.33-0.08-0.75-0.08
		c-1.49,0-4.89,0.53-7.84,3.58c-2.1,2.18-2.87,4.5-3.11,6.13c-0.4-0.54-0.86-1.08-1.4-1.61c-2.82-2.72-5.88-3.21-7.38-3.21
		c-0.52,0-0.85,0.06-0.91,0.1c-0.16,0.1-0.3,0.23-0.3,0.23s-0.16,0.14-0.29,0.31c-0.21,0.27-0.54,4.9,3.24,8.62
		c2.74,2.7,5.88,3.19,7.51,3.19c0.63,0,1.03-0.07,1.1-0.12c0.15-0.1,0.27-0.23,0.27-0.23s0.14-0.14,0.25-0.3
		c0.11-0.15,0.25-1.92-0.56-4.13c1.61-0.01,4.87-0.55,7.63-3.36C32.64,15.58,32.14,11.02,31.97,10.77z M17.63,24.73
		c-1.23-0.42-2.34-1.12-3.3-2.07c-1.15-1.13-1.95-2.48-2.37-4c-0.13-0.46-0.2-0.87-0.25-1.23c1.13,0.15,3.1,0.67,5,2.5
		c1.21,1.17,2.06,2.54,2.53,4.06c0.13,0.43,0.21,0.82,0.26,1.14C19.01,25.1,18.36,24.98,17.63,24.73z M23.84,19.93
		c-0.71,0.25-1.34,0.37-1.82,0.43c0.04-0.31,0.11-0.67,0.21-1.06c0.39-1.45,1.16-2.77,2.29-3.94c1.91-1.98,3.99-2.6,5.21-2.79
		c-0.03,0.33-0.09,0.72-0.2,1.15c-0.38,1.52-1.15,2.88-2.28,4.03C26.27,18.74,25.12,19.47,23.84,19.93z"/>
	<g>
		<path class="st0" d="M13.12,28.55c0.26-0.09,0.48,0.02,0.52,0.04c0.51,0.3,1.01,0.6,1.52,0.9c0.14,0.08,0.63,0.36,0.78,0.85
			c0.1,0.32,0.06,0.64-0.14,0.97c-0.21,0.36-0.52,0.55-0.91,0.57c0.11,0.2,0.17,0.4,0.17,0.59c0.01,0.19-0.05,0.39-0.17,0.59
			c-0.19,0.32-0.44,0.52-0.75,0.6c-0.31,0.08-0.64,0.01-1-0.2c-0.59-0.35-1.18-0.7-1.78-1.05c-0.05-0.04-0.19-0.16-0.25-0.38
			c-0.06-0.25,0.05-0.46,0.07-0.5c0.53-0.9,1.05-1.79,1.58-2.69C12.8,28.79,12.9,28.62,13.12,28.55z M13.85,29.79
			c-0.03,0-0.05,0.02-0.06,0.03c-0.12,0.2-0.24,0.4-0.35,0.59c0,0-0.02,0.03-0.01,0.06c0.01,0.02,0.02,0.04,0.03,0.05
			c0.04,0.03,0.24,0.15,0.51,0.3c0.03,0.02,0.16,0.09,0.33,0.04c0.15-0.04,0.23-0.16,0.24-0.18c0.07-0.11,0.07-0.23,0.06-0.28
			c-0.02-0.21-0.2-0.32-0.22-0.34c-0.25-0.15-0.43-0.26-0.48-0.28C13.89,29.79,13.87,29.78,13.85,29.79z M13.01,31.18
			c-0.04,0.01-0.05,0.04-0.05,0.04c-0.13,0.22-0.26,0.44-0.4,0.67c0,0.01-0.01,0.03-0.01,0.05c0.01,0.02,0.02,0.03,0.03,0.03
			c0.03,0.02,0.27,0.16,0.59,0.35c0.04,0.02,0.19,0.09,0.37,0.04c0.04-0.01,0.17-0.05,0.26-0.18c0.09-0.14,0.07-0.29,0.06-0.34
			c-0.04-0.18-0.17-0.27-0.2-0.29c-0.31-0.18-0.53-0.31-0.59-0.34C13.07,31.18,13.04,31.17,13.01,31.18z"/>
		<path class="st0" d="M19.96,30.98c-0.14-0.18-0.34-0.21-0.38-0.21c-0.13-0.02-0.26-0.03-0.39-0.05c0,0,0,0,0,0
			c-0.17-0.02-0.34-0.05-0.51-0.07c-0.55-0.07-1.11-0.15-1.66-0.22c-0.09-0.01-0.23,0-0.36,0.09c-0.21,0.13-0.27,0.39-0.29,0.52
			c-0.14,1.04-0.28,2.07-0.42,3.11c-0.01,0.03-0.07,0.28,0.09,0.49c0.08,0.1,0.17,0.16,0.26,0.19c0.12,0.04,0.23,0.04,0.24,0.04
			c0.81,0.1,1.62,0.21,2.43,0.31c0.03,0.01,0.22,0.05,0.4-0.06c0.22-0.13,0.24-0.37,0.24-0.4c0-0.02,0.01-0.07,0.01-0.14
			c0-0.01-0.01-0.13-0.08-0.24c-0.13-0.2-0.38-0.24-0.41-0.24c-0.14-0.02-0.28-0.04-0.42-0.06c0,0,0,0,0,0
			c-0.21-0.03-0.43-0.06-0.64-0.09c0,0-0.01,0-0.02,0c0,0,0,0,0,0c-0.15-0.02-0.3-0.04-0.45-0.06c-0.01,0-0.04-0.01-0.07-0.04
			c-0.03-0.04-0.02-0.08-0.02-0.09c0.02-0.11,0.03-0.22,0.05-0.34c0,0,0-0.04,0.04-0.07c0.03-0.02,0.07-0.01,0.07-0.01
			c0.19,0.03,0.38,0.05,0.57,0.08c0,0,0.01,0,0.02,0c0.02,0,0.04,0.01,0.06,0.01c0.13,0.02,0.26,0.04,0.39,0.05
			c0.03,0.01,0.29,0.06,0.51-0.11c0.15-0.13,0.18-0.29,0.19-0.34c0.01-0.04,0.04-0.26-0.12-0.45c-0.16-0.19-0.38-0.2-0.42-0.2
			c-0.12-0.02-0.23-0.03-0.35-0.05c0,0,0,0,0,0c-0.08-0.01-0.17-0.02-0.25-0.03c0,0-0.01,0-0.01,0c0,0,0,0,0,0
			c-0.15-0.02-0.3-0.04-0.45-0.06c-0.01,0-0.03-0.01-0.05-0.03c-0.02-0.03-0.01-0.07-0.01-0.07c0.02-0.13,0.03-0.26,0.05-0.38
			c0,0,0-0.03,0.03-0.05c0.02-0.02,0.05-0.01,0.05-0.01c0.34,0.05,0.68,0.09,1.02,0.14c0,0,0.01,0,0.01,0c0,0,0,0,0.01,0
			c0.03,0,0.05,0.01,0.08,0.01c0.12,0.02,0.25,0.03,0.37,0.05c0.03,0.01,0.28,0.07,0.5-0.1c0.16-0.13,0.2-0.3,0.21-0.35
			C20.07,31.39,20.11,31.18,19.96,30.98z"/>
		<path class="st0" d="M21.87,35.12c-0.09,0.1-0.21,0.11-0.24,0.11c-0.27,0.01-0.55,0.02-0.82,0.03c-0.02,0-0.13-0.02-0.21-0.12
			c-0.1-0.12-0.06-0.27-0.06-0.29c0.24-1.85,0.47-3.21,0.59-3.56c0.03-0.09,0.09-0.29,0.27-0.45c0.13-0.12,0.25-0.17,0.33-0.2
			c0.08-0.03,0.29-0.11,0.56-0.08c0.04,0,0.2,0.03,0.38,0.12c0.29,0.16,0.45,0.42,0.52,0.56c0.23,0.42,0.78,1.54,1.44,3.07
			c0.01,0.02,0.05,0.13,0.01,0.26c-0.05,0.12-0.15,0.17-0.17,0.18c-0.27,0.06-0.54,0.12-0.81,0.18c-0.05,0-0.14,0-0.23-0.06
			c-0.08-0.05-0.12-0.11-0.16-0.17c-0.04-0.06-0.09-0.15-0.12-0.27c0,0,0-0.03-0.03-0.05c-0.02-0.02-0.05-0.01-0.05-0.01
			c-0.33,0.04-0.67,0.07-1,0.11c-0.01,0-0.03,0.01-0.05,0.02c-0.03,0.03-0.03,0.07-0.03,0.07c-0.01,0.11-0.02,0.23-0.03,0.34
			C21.96,34.94,21.94,35.04,21.87,35.12z M22,33.42c0.03,0.03,0.08,0.03,0.09,0.03c0.16-0.02,0.31-0.03,0.47-0.05
			c0.01,0,0.05,0,0.08-0.04c0.03-0.03,0.03-0.08,0.01-0.13c-0.14-0.35-0.27-0.71-0.41-1.06c-0.01-0.03-0.03-0.04-0.05-0.04
			c-0.03,0-0.05,0.03-0.05,0.06c-0.06,0.37-0.12,0.74-0.18,1.11C21.96,33.31,21.95,33.38,22,33.42z"/>
		<path class="st0" d="M29.2,32.41c-0.03,0.02-0.07,0.05-0.15,0.1c-0.11,0.07-0.14,0.08-0.24,0.13c-0.07,0.04-0.09,0.05-0.12,0.06
			c-0.13,0.07-0.26,0.08-0.29,0.08c-0.15,0.01-0.28-0.04-0.35-0.07c0,0-1.27-0.62-1.78-0.94c-0.05-0.03-0.12-0.02-0.15,0.02
			c-0.03,0.04-0.02,0.09,0.01,0.13c0.4,0.6,0.69,1.07,0.81,1.3c0.04,0.07,0.1,0.18,0.06,0.31c-0.03,0.13-0.12,0.19-0.15,0.21
			c-0.15,0.09-0.3,0.18-0.45,0.27c-0.1,0.04-0.25,0.07-0.38,0.01c-0.13-0.06-0.2-0.18-0.22-0.22c-0.15-0.26-0.86-1.45-1.83-3.08
			c-0.02-0.02-0.1-0.16-0.06-0.34c0.04-0.16,0.15-0.24,0.18-0.26c0.18-0.11,0.36-0.22,0.54-0.33c0.03-0.02,0.07-0.04,0.12-0.05
			c0.03-0.01,0.06-0.01,0.1-0.01c0.12,0,0.23,0.05,0.25,0.07c0.13,0.07,0.96,0.54,2.11,1.2c0.03,0.02,0.07,0.02,0.1-0.01
			c0.02-0.02,0.03-0.06,0.01-0.09c-0.33-0.56-0.67-1.12-1-1.69c-0.01-0.02-0.08-0.16-0.02-0.31c0.04-0.11,0.12-0.17,0.15-0.19
			c0.17-0.1,0.34-0.21,0.51-0.31c0.05,0,0.15-0.01,0.27,0.04c0,0,0.13,0.05,0.23,0.18c0.14,0.18,0.89,1.45,1.88,3.2
			c0.01,0.02,0.1,0.17,0.04,0.34C29.35,32.33,29.22,32.39,29.2,32.41z"/>
	</g>
</g>
</svg>
